<mxfile host="app.diagrams.net" modified="2021-06-18T09:12:10.697Z" agent="5.0 (Macintosh; Intel Mac OS X 10_15_7) AppleWebKit/537.36 (KHTML, like Gecko) Chrome/91.0.4472.77 Safari/537.36" etag="cqRWAeVQ10zq6n0-ZdB4" version="14.7.9" type="github">
  <diagram id="DSSoJJGQB_0jT_FpW2hz" name="Page-1">
    <mxGraphModel dx="1426" dy="2058" grid="1" gridSize="10" guides="1" tooltips="1" connect="1" arrows="1" fold="1" page="1" pageScale="1" pageWidth="827" pageHeight="1169" math="0" shadow="0">
      <root>
        <mxCell id="0" />
        <mxCell id="1" parent="0" />
        <mxCell id="0bLyO6hEo1IjD0arP0Xv-15" value="React site application" style="rounded=0;whiteSpace=wrap;html=1;align=left;verticalAlign=bottom;" vertex="1" parent="1">
          <mxGeometry x="110" y="150" width="260" height="350" as="geometry" />
        </mxCell>
        <mxCell id="0bLyO6hEo1IjD0arP0Xv-1" value="" style="rounded=0;whiteSpace=wrap;html=1;" vertex="1" parent="1">
          <mxGeometry x="120" y="160" width="240" height="320" as="geometry" />
        </mxCell>
        <mxCell id="0bLyO6hEo1IjD0arP0Xv-2" value="Joom for Merchants" style="text;html=1;strokeColor=none;fillColor=none;align=left;verticalAlign=middle;whiteSpace=wrap;rounded=0;" vertex="1" parent="1">
          <mxGeometry x="130" y="170" width="140" height="20" as="geometry" />
        </mxCell>
        <mxCell id="0bLyO6hEo1IjD0arP0Xv-3" value="FAQ" style="rounded=0;whiteSpace=wrap;html=1;align=center;" vertex="1" parent="1">
          <mxGeometry x="130" y="300" width="220" height="80" as="geometry" />
        </mxCell>
        <mxCell id="0bLyO6hEo1IjD0arP0Xv-5" style="edgeStyle=orthogonalEdgeStyle;rounded=0;orthogonalLoop=1;jettySize=auto;html=1;" edge="1" parent="1" source="0bLyO6hEo1IjD0arP0Xv-4" target="0bLyO6hEo1IjD0arP0Xv-1">
          <mxGeometry relative="1" as="geometry" />
        </mxCell>
        <mxCell id="0bLyO6hEo1IjD0arP0Xv-8" style="edgeStyle=orthogonalEdgeStyle;rounded=0;orthogonalLoop=1;jettySize=auto;html=1;entryX=0;entryY=0.25;entryDx=0;entryDy=0;exitX=1;exitY=0.25;exitDx=0;exitDy=0;" edge="1" parent="1" source="0bLyO6hEo1IjD0arP0Xv-4" target="0bLyO6hEo1IjD0arP0Xv-7">
          <mxGeometry relative="1" as="geometry" />
        </mxCell>
        <mxCell id="0bLyO6hEo1IjD0arP0Xv-4" value="Next.js Server" style="rounded=0;whiteSpace=wrap;html=1;align=center;" vertex="1" parent="1">
          <mxGeometry x="120" y="10" width="240" height="60" as="geometry" />
        </mxCell>
        <mxCell id="0bLyO6hEo1IjD0arP0Xv-9" style="edgeStyle=orthogonalEdgeStyle;rounded=0;orthogonalLoop=1;jettySize=auto;html=1;entryX=1;entryY=0.75;entryDx=0;entryDy=0;exitX=0;exitY=0.75;exitDx=0;exitDy=0;" edge="1" parent="1" source="0bLyO6hEo1IjD0arP0Xv-7" target="0bLyO6hEo1IjD0arP0Xv-4">
          <mxGeometry relative="1" as="geometry" />
        </mxCell>
        <mxCell id="0bLyO6hEo1IjD0arP0Xv-11" style="edgeStyle=orthogonalEdgeStyle;rounded=0;orthogonalLoop=1;jettySize=auto;html=1;entryX=0.25;entryY=1;entryDx=0;entryDy=0;exitX=0.25;exitY=0;exitDx=0;exitDy=0;" edge="1" parent="1" source="0bLyO6hEo1IjD0arP0Xv-7" target="0bLyO6hEo1IjD0arP0Xv-10">
          <mxGeometry relative="1" as="geometry" />
        </mxCell>
        <mxCell id="0bLyO6hEo1IjD0arP0Xv-19" style="edgeStyle=orthogonalEdgeStyle;rounded=0;orthogonalLoop=1;jettySize=auto;html=1;entryX=1;entryY=0.5;entryDx=0;entryDy=0;exitX=0.25;exitY=1;exitDx=0;exitDy=0;dashed=1;" edge="1" parent="1" source="0bLyO6hEo1IjD0arP0Xv-7" target="0bLyO6hEo1IjD0arP0Xv-3">
          <mxGeometry relative="1" as="geometry">
            <Array as="points">
              <mxPoint x="500" y="130" />
              <mxPoint x="410" y="130" />
              <mxPoint x="410" y="340" />
            </Array>
          </mxGeometry>
        </mxCell>
        <mxCell id="0bLyO6hEo1IjD0arP0Xv-22" style="edgeStyle=orthogonalEdgeStyle;rounded=0;orthogonalLoop=1;jettySize=auto;html=1;entryX=0.75;entryY=0;entryDx=0;entryDy=0;exitX=0.75;exitY=1;exitDx=0;exitDy=0;" edge="1" parent="1" source="0bLyO6hEo1IjD0arP0Xv-7" target="0bLyO6hEo1IjD0arP0Xv-20">
          <mxGeometry relative="1" as="geometry" />
        </mxCell>
        <mxCell id="0bLyO6hEo1IjD0arP0Xv-7" value="BIF" style="rounded=0;whiteSpace=wrap;html=1;align=center;" vertex="1" parent="1">
          <mxGeometry x="440" y="10" width="240" height="60" as="geometry" />
        </mxCell>
        <mxCell id="0bLyO6hEo1IjD0arP0Xv-12" style="edgeStyle=orthogonalEdgeStyle;rounded=0;orthogonalLoop=1;jettySize=auto;html=1;entryX=0.75;entryY=0;entryDx=0;entryDy=0;exitX=0.75;exitY=1;exitDx=0;exitDy=0;" edge="1" parent="1" source="0bLyO6hEo1IjD0arP0Xv-10" target="0bLyO6hEo1IjD0arP0Xv-7">
          <mxGeometry relative="1" as="geometry" />
        </mxCell>
        <mxCell id="0bLyO6hEo1IjD0arP0Xv-10" value="Zendesk API" style="rounded=0;whiteSpace=wrap;html=1;align=center;" vertex="1" parent="1">
          <mxGeometry x="440" y="-110" width="240" height="60" as="geometry" />
        </mxCell>
        <mxCell id="0bLyO6hEo1IjD0arP0Xv-20" value="React panel application" style="rounded=0;whiteSpace=wrap;html=1;align=left;verticalAlign=bottom;" vertex="1" parent="1">
          <mxGeometry x="440" y="150" width="240" height="350" as="geometry" />
        </mxCell>
      </root>
    </mxGraphModel>
  </diagram>
</mxfile>
